HIERARCHY
ROOT Hips
{
  OFFSET -1.50901 95.7467 -1.8478
  CHANNELS 6 Xposition Yposition Zposition Zrotation Xrotation Yrotation
  JOINT Spine
  {
    OFFSET 0 10.1816 0.1315
    CHANNELS 6 Xposition Yposition Zposition Zrotation Xrotation Yrotation
    JOINT Spine1
    {
      OFFSET 0 10.0835 -1.0008
      CHANNELS 6 Xposition Yposition Zposition Zrotation Xrotation Yrotation
      JOINT Spine2
      {
        OFFSET 0 9.1 -1.3734
        CHANNELS 6 Xposition Yposition Zposition Zrotation Xrotation Yrotation
        JOINT Neck
        {
          OFFSET 0 16.6717 -2.5162
          CHANNELS 6 Xposition Yposition Zposition Zrotation Xrotation Yrotation
          JOINT Head
          {
            OFFSET 0 9.6179 1.685
            CHANNELS 6 Xposition Yposition Zposition Zrotation Xrotation Yrotation
            JOINT HeadTop_End
            {
              OFFSET 0 17.8152 2.585
              CHANNELS 6 Xposition Yposition Zposition Zrotation Xrotation Yrotation
              End Site
              {
                OFFSET 0 0 0
              }
            }
            JOINT LeftEye
            {
              OFFSET 3.0676 6.4095 9.2836
              CHANNELS 6 Xposition Yposition Zposition Zrotation Xrotation Yrotation
              End Site
              {
                OFFSET 0 0 0
              }
            }
            JOINT RightEye
            {
              OFFSET -3.0676 6.4095 9.2835
              CHANNELS 6 Xposition Yposition Zposition Zrotation Xrotation Yrotation
              End Site
              {
                OFFSET 0 0 0
              }
            }
          }
        }
        JOINT LeftShoulder
        {
          OFFSET 4.5704 10.946 -2.628
          CHANNELS 6 Xposition Yposition Zposition Zrotation Xrotation Yrotation
          JOINT LeftArm
          {
            OFFSET 10.5924 -0.5246 -2.2321
            CHANNELS 6 Xposition Yposition Zposition Zrotation Xrotation Yrotation
            JOINT LeftForeArm
            {
              OFFSET 27.8415 -0.0001 0
              CHANNELS 6 Xposition Yposition Zposition Zrotation Xrotation Yrotation
              JOINT LeftHand
              {
                OFFSET 28.3288 0 0
                CHANNELS 6 Xposition Yposition Zposition Zrotation Xrotation Yrotation
                JOINT LeftHandThumb1
                {
                  OFFSET 2.4661 -1.575 2.6824
                  CHANNELS 6 Xposition Yposition Zposition Zrotation Xrotation Yrotation
                  JOINT LeftHandThumb2
                  {
                    OFFSET 3.2298 -1.8647 1.8647
                    CHANNELS 6 Xposition Yposition Zposition Zrotation Xrotation Yrotation
                    JOINT LeftHandThumb3
                    {
                      OFFSET 2.6526 -1.5315 1.5315
                      CHANNELS 6 Xposition Yposition Zposition Zrotation Xrotation Yrotation
                      End Site
                      {
                        OFFSET 1.9546 -1.1285 1.1285
                      }
                    }
                  }
                }
                JOINT LeftHandIndex1
                {
                  OFFSET 9.1093 -0.5171 2.2601
                  CHANNELS 6 Xposition Yposition Zposition Zrotation Xrotation Yrotation
                  JOINT LeftHandIndex2
                  {
                    OFFSET 3.6764 0 0
                    CHANNELS 6 Xposition Yposition Zposition Zrotation Xrotation Yrotation
                    JOINT LeftHandIndex3
                    {
                      OFFSET 2.8831 0 0
                      CHANNELS 6 Xposition Yposition Zposition Zrotation Xrotation Yrotation
                      End Site
                      {
                        OFFSET 2.3927 0 0
                      }
                    }
                  }
                }
                JOINT LeftHandMiddle1
                {
                  OFFSET 9.5334 0 0
                  CHANNELS 6 Xposition Yposition Zposition Zrotation Xrotation Yrotation
                  JOINT LeftHandMiddle2
                  {
                    OFFSET 3.6982 0 0
                    CHANNELS 6 Xposition Yposition Zposition Zrotation Xrotation Yrotation
                    JOINT LeftHandMiddle3
                    {
                      OFFSET 2.9509 0 0
                      CHANNELS 6 Xposition Yposition Zposition Zrotation Xrotation Yrotation
                      End Site
                      {
                        OFFSET 2.8339 0 0
                      }
                    }
                  }
                }
                JOINT LeftHandRing1
                {
                  OFFSET 9.1045 -0.0439 -1.8651
                  CHANNELS 6 Xposition Yposition Zposition Zrotation Xrotation Yrotation
                  JOINT LeftHandRing2
                  {
                    OFFSET 3.154 0 0
                    CHANNELS 6 Xposition Yposition Zposition Zrotation Xrotation Yrotation
                    JOINT LeftHandRing3
                    {
                      OFFSET 2.9377 0 0
                      CHANNELS 6 Xposition Yposition Zposition Zrotation Xrotation Yrotation
                      End Site
                      {
                        OFFSET 2.6475 0 0
                      }
                    }
                  }
                }
                JOINT LeftHandPinky1
                {
                  OFFSET 8.0778 -0.4887 -3.8061
                  CHANNELS 6 Xposition Yposition Zposition Zrotation Xrotation Yrotation
                  JOINT LeftHandPinky2
                  {
                    OFFSET 3.6 0 0
                    CHANNELS 6 Xposition Yposition Zposition Zrotation Xrotation Yrotation
                    JOINT LeftHandPinky3
                    {
                      OFFSET 2.1142 0 0
                      CHANNELS 6 Xposition Yposition Zposition Zrotation Xrotation Yrotation
                      End Site
                      {
                        OFFSET 1.9757 0 0
                      }
                    }
                  }
                }
              }
            }
          }
        }
        JOINT RightShoulder
        {
          OFFSET -4.57 10.9462 -2.628
          CHANNELS 6 Xposition Yposition Zposition Zrotation Xrotation Yrotation
          JOINT RightArm
          {
            OFFSET -10.5928 -0.5248 -2.2321
            CHANNELS 6 Xposition Yposition Zposition Zrotation Xrotation Yrotation
            JOINT RightForeArm
            {
              OFFSET -27.8415 0 0
              CHANNELS 6 Xposition Yposition Zposition Zrotation Xrotation Yrotation
              JOINT RightHand
              {
                OFFSET -28.3288 0 0.0001
                CHANNELS 6 Xposition Yposition Zposition Zrotation Xrotation Yrotation
                JOINT RightHandPinky1
                {
                  OFFSET -8.0767 -0.4885 -3.806
                  CHANNELS 6 Xposition Yposition Zposition Zrotation Xrotation Yrotation
                  JOINT RightHandPinky2
                  {
                    OFFSET -3.6 0 0.0001
                    CHANNELS 6 Xposition Yposition Zposition Zrotation Xrotation Yrotation
                    JOINT RightHandPinky3
                    {
                      OFFSET -2.1142 0 0
                      CHANNELS 6 Xposition Yposition Zposition Zrotation Xrotation Yrotation
                      End Site
                      {
                        OFFSET -1.9757 0 0
                      }
                    }
                  }
                }
                JOINT RightHandRing1
                {
                  OFFSET -9.1036 -0.0439 -1.8651
                  CHANNELS 6 Xposition Yposition Zposition Zrotation Xrotation Yrotation
                  JOINT RightHandRing2
                  {
                    OFFSET -3.154 0 0
                    CHANNELS 6 Xposition Yposition Zposition Zrotation Xrotation Yrotation
                    JOINT RightHandRing3
                    {
                      OFFSET -2.9377 0 0
                      CHANNELS 6 Xposition Yposition Zposition Zrotation Xrotation Yrotation
                      End Site
                      {
                        OFFSET -2.6475 0 0
                      }
                    }
                  }
                }
                JOINT RightHandMiddle1
                {
                  OFFSET -9.5325 0 0
                  CHANNELS 6 Xposition Yposition Zposition Zrotation Xrotation Yrotation
                  JOINT RightHandMiddle2
                  {
                    OFFSET -3.6982 0 0
                    CHANNELS 6 Xposition Yposition Zposition Zrotation Xrotation Yrotation
                    JOINT RightHandMiddle3
                    {
                      OFFSET -2.9509 0 0
                      CHANNELS 6 Xposition Yposition Zposition Zrotation Xrotation Yrotation
                      End Site
                      {
                        OFFSET -2.8339 0 0.0001
                      }
                    }
                  }
                }
                JOINT RightHandIndex1
                {
                  OFFSET -9.1083 -0.5168 2.2601
                  CHANNELS 6 Xposition Yposition Zposition Zrotation Xrotation Yrotation
                  JOINT RightHandIndex2
                  {
                    OFFSET -3.6764 0 0
                    CHANNELS 6 Xposition Yposition Zposition Zrotation Xrotation Yrotation
                    JOINT RightHandIndex3
                    {
                      OFFSET -2.8831 0 0
                      CHANNELS 6 Xposition Yposition Zposition Zrotation Xrotation Yrotation
                      End Site
                      {
                        OFFSET -2.3927 0 0
                      }
                    }
                  }
                }
                JOINT RightHandThumb1
                {
                  OFFSET -2.4648 -1.5727 2.6826
                  CHANNELS 6 Xposition Yposition Zposition Zrotation Xrotation Yrotation
                  JOINT RightHandThumb2
                  {
                    OFFSET -3.2298 -1.8647 1.8647
                    CHANNELS 6 Xposition Yposition Zposition Zrotation Xrotation Yrotation
                    JOINT RightHandThumb3
                    {
                      OFFSET -2.6526 -1.5314 1.5314
                      CHANNELS 6 Xposition Yposition Zposition Zrotation Xrotation Yrotation
                      End Site
                      {
                        OFFSET -1.9546 -1.1285 1.1285
                      }
                    }
                  }
                }
              }
            }
          }
        }
      }
    }
  }
  JOINT LeftUpLeg
  {
    OFFSET 8.2078 -6.7517 -1.5996
    CHANNELS 6 Xposition Yposition Zposition Zrotation Xrotation Yrotation
    JOINT LeftLeg
    {
      OFFSET 0 -44.3705 0.2846
      CHANNELS 6 Xposition Yposition Zposition Zrotation Xrotation Yrotation
      JOINT LeftFoot
      {
        OFFSET 0 -44.4279 -2.9822
        CHANNELS 6 Xposition Yposition Zposition Zrotation Xrotation Yrotation
        JOINT LeftToeBase
        {
          OFFSET 0 -8.7287 10.7106
          CHANNELS 6 Xposition Yposition Zposition Zrotation Xrotation Yrotation
          End Site
          {
            OFFSET 0 -0.0007 9.2781
          }
        }
      }
    }
  }
  JOINT RightUpLeg
  {
    OFFSET -8.2078 -6.7517 -1.5996
    CHANNELS 6 Xposition Yposition Zposition Zrotation Xrotation Yrotation
    JOINT RightLeg
    {
      OFFSET 0 -44.3705 0.2862
      CHANNELS 6 Xposition Yposition Zposition Zrotation Xrotation Yrotation
      JOINT RightFoot
      {
        OFFSET 0 -44.4277 -2.9838
        CHANNELS 6 Xposition Yposition Zposition Zrotation Xrotation Yrotation
        JOINT RightToeBase
        {
          OFFSET 0 -8.7287 10.7106
          CHANNELS 6 Xposition Yposition Zposition Zrotation Xrotation Yrotation
          End Site
          {
            OFFSET 0 -0.0007 9.2781
          }
        }
      }
    }
  }
}
MOTION
Frames:	4
Frame Time:	0.0333333
-2.74501 118.106 7.41365 1.65246 -6.25017 1.45871 -3.33067e-016 10.1816 0.1315 -1.71604 -13.1416 4.15894 0 10.0835 -1.0008 -1.61149 5.74174 0.739833 1.77636e-015 9.1 -1.3734 -1.61185 5.75227 0.695203 -1.77636e-015 16.6717 -2.5162 -7.27973 7.83442 4.99531 -7.10543e-015 9.6179 1.685 -17.7388 -0.584183 19.9181 -1.42109e-014 17.8152 2.585 -1.19271e-015 7.95139e-016 -0 3.0676 6.4095 9.2836 -1.19271e-015 7.95139e-016 -0 -3.0676 6.4095 9.2835 -1.19271e-015 7.95139e-016 -0 4.5704 10.946 -2.628 -12 0.353247 3.45513 10.5924 -0.5246 -2.2321 -19.6407 -34.6852 17.3237 27.8415 -0.0001 0 -0.000248078 5.91855e-007 -80.8506 28.3288 -1.42109e-014 -1.42109e-014 38.4052 -31.8038 -31.7 2.4661 -1.575 2.6824 6.09509 -12.1743 -3.32331 3.2298 -1.8647 1.8647 0.0375777 6.76468 13.1968 2.6526 -1.5315 1.5315 2.40573 0.997898 4.16231 9.1093 -0.5171 2.2601 -10.8666 -0.123536 1.29871 3.6764 0 3.55271e-015 -2.76181 -0.00801072 0.331889 2.8831 0 1.06581e-014 -1.38091 -0.00198863 0.165993 9.5334 1.77636e-015 -5.32907e-015 -10.8284 -0.110876 4.58459 3.6982 0 0 -3.15292 -0.0104207 0.378876 2.9509 0 -1.06581e-014 -1.75547 -0.114458 0.211129 9.1045 -0.0439 -1.8651 -10.8191 -0.0670138 8.69597 3.154 0 0 -3.62415 -0.0137323 0.435435 2.9377 0 -7.10543e-015 -2.23714 -0.14079 0.269065 8.0778 -0.4887 -3.8061 -10.3087 0.128692 16.4264 3.6 -1.77636e-015 -7.10543e-015 -4.4978 0.283696 -3.56303 2.1142 0 0 -2.61776 -0.00718594 0.31461 -4.57 10.9462 -2.628 10.3393 0.867764 0.407522 -10.5928 -0.5248 -2.2321 30.8817 -50.563 11.9244 -27.8415 -1.42109e-014 1.42109e-014 0.000132749 8.86549e-006 84.3781 -28.3288 0 0.0001 -42.5146 10.3651 26.3613 -8.0767 -0.4885 -3.806 -2.2826 0.140623 -11.7103 -3.6 0 0.0001 11.6792 -0.143701 -1.40659 -2.1142 -1.77636e-015 6.21725e-015 10.7489 -0.122039 -1.29733 -9.1036 -0.0439 -1.8651 -5.07402 0.0377318 -7.39183 -3.154 7.10543e-015 3.55271e-015 8.77872 -0.0815216 -1.06163 -2.9377 -3.55271e-015 -1.77636e-015 7.77238 -0.0639113 -0.940685 -9.5325 0 -7.10543e-015 -8.18777 -0.0583074 -2.56828 -3.6982 -7.10543e-015 3.55271e-015 4.90869 -0.0255065 -0.595197 -2.9509 0 -7.10543e-015 3.9469 -0.0165012 -0.480802 -9.1083 -0.5168 2.2601 -10.6766 -0.12043 1.28874 -3.6764 1.42109e-014 -7.10543e-015 1.86107 -0.00366009 -0.225911 -2.8831 0 -7.10543e-015 0.93055 -0.000929118 -0.112937 -2.4648 -1.5727 2.6826 -1.27874 -30.6039 -1.63892 -3.2298 -1.8647 1.8647 -8.87454 4.07678 -13.7519 -2.6526 -1.5314 1.5314 -6.39844 -2.08021 -2.8738 8.2078 -6.7517 -1.5996 9.63403 6.69558 -6.46044 -3.55271e-015 -44.3705 0.2846 -1.01719 7.0943 -7.79888 -3.55271e-015 -44.4279 -2.9822 -21.2775 21.5833 -4.39271 -1.77636e-015 -8.7287 10.7106 -6.97178e-006 -4.99184e-006 -3.02613e-006 -8.2078 -6.7517 -1.5996 -7.11551 2.32108 -7.27434 3.55271e-015 -44.3705 0.2862 -4.39842 33.3937 9.05773 7.10543e-015 -44.4277 -2.9838 4.50265 12.4976 5.0819 0 -8.7287 10.7106 -1.1664e-006 -3.30073e-005 -3.13277e-006 
-2.38491 112.573 6.70882 0.0800886 -5.91568 0.883939 8.88178e-016 10.1816 0.1315 -0.282144 -12.0899 4.52273 0 10.0835 -1.0008 -0.898899 6.29517 0.803341 -1.77636e-015 9.1 -1.3734 -0.89889 6.30318 0.760055 0 16.6717 -2.5162 -6.35263 7.23185 4.25335 0 9.6179 1.685 -14.4598 -3.15292 16.4428 1.42109e-014 17.8152 2.585 -2.78299e-015 7.95139e-016 -0 3.0676 6.4095 9.2836 -2.78299e-015 7.95139e-016 -0 -3.0676 6.4095 9.2835 -2.78299e-015 7.95139e-016 -0 4.5704 10.946 -2.628 -12 0.34373 4.3854 10.5924 -0.5246 -2.2321 -31.5899 -22.0314 15.8216 27.8415 -0.0001 1.77636e-015 -0.000212796 2.95007e-006 -70.3788 28.3288 -1.42109e-014 -1.42109e-014 34.9894 -31.536 -24.024 2.4661 -1.575 2.6824 6.65819 -11.219 -2.26857 3.2298 -1.8647 1.8647 0.0375777 6.76468 13.1968 2.6526 -1.5315 1.5315 2.40573 0.997898 4.16231 9.1093 -0.5171 2.2601 -11.3779 -0.135402 1.35904 3.6764 0 0 -3.2911 -0.0113505 0.39544 2.8831 0 1.42109e-014 -1.64555 -0.00286051 0.19781 9.5334 -3.55271e-015 1.42109e-014 -11.9301 -0.140862 4.12406 3.6982 -7.10543e-015 0 -4.23367 -0.0187869 0.508526 2.9509 0 2.84217e-014 -2.56334 -0.214799 0.308238 9.1045 -0.0439 -1.8651 -12.6578 -0.130586 7.58424 3.154 -7.10543e-015 0 -5.39509 -0.0305177 0.64768 2.9377 7.10543e-015 1.42109e-014 -3.72649 -0.252401 0.447988 8.0778 -0.4887 -3.8061 -12.8015 0.00986561 14.7331 3.6 0 -1.42109e-014 -6.77718 0.419896 -3.2745 2.1142 0 1.42109e-014 -4.63643 -0.0225438 0.556814 -4.57 10.9462 -2.628 12 0.982966 0.591368 -10.5928 -0.5248 -2.2321 41.952 -43.389 14.6101 -27.8415 0 0 2.33317e-005 -5.99281e-006 76.1309 -28.3288 0 0.0001 -32.6182 14.441 16.7783 -8.0767 -0.4885 -3.806 1.00992 0.0973861 -10.0241 -3.6 -3.55271e-015 0.0001 13.6458 -0.196004 -1.63961 -2.1142 0 -7.10543e-015 12.5127 -0.165217 -1.50713 -9.1036 -0.0439 -1.8651 -2.38016 0.0376022 -6.32454 -3.154 0 7.10543e-015 10.2947 -0.111977 -1.24313 -2.9377 0 0 9.07075 -0.0869882 -1.09663 -9.5325 0 1.06581e-014 -6.16526 -0.0319155 -2.19242 -3.6982 3.55271e-015 7.10543e-015 5.81353 -0.0357756 -0.704535 -2.9509 -3.55271e-015 1.42109e-014 4.64279 -0.0228385 -0.56504 -9.1083 -0.5168 2.2601 -9.19189 -0.0893225 1.11114 -3.6764 0 7.10543e-015 2.26689 -0.00543771 -0.275135 -2.8831 0 0 1.13346 -0.00134647 -0.137584 -2.4648 -1.5727 2.6826 -2.30954 -29.098 -2.99163 -3.2298 -1.8647 1.8647 -8.54849 4.21161 -13.8451 -2.6526 -1.5314 1.5314 -6.24702 -1.99062 -2.90348 8.2078 -6.7517 -1.5996 7.05106 5.32808 -8.33995 0 -44.3705 0.2846 -2.81886 6.81165 -8.24178 0 -44.4279 -2.9822 -19.1282 18.9533 0.18526 0 -8.7287 10.7106 9.91502e-007 -4.1025 1.18947e-005 -8.2078 -6.7517 -1.5996 -2.20443 6.6437 -9.7417 -1.77636e-015 -44.3705 0.2862 -0.963548 14.151 9.89875 0 -44.4277 -2.9838 9.52271 16.7689 2.04283 -1.77636e-015 -8.7287 10.7106 -6.0878e-006 -5.38908 -2.85422e-006 
-2.17063 105.546 5.72555 -1.05499 -7.26001 0.597724 -8.88178e-016 10.1816 0.1315 0.457514 -6.55094 4.64748 0 10.0835 -1.0008 -0.142121 5.94273 0.829937 -8.88178e-016 9.1 -1.3734 -0.153353 5.94637 0.782126 -8.88178e-016 16.6717 -2.5162 -5.02835 6.26371 3.44122 3.55271e-015 9.6179 1.685 -10.6611 -6.20369 13.1863 0 17.8152 2.585 -2.78299e-015 -1.59028e-015 -0 3.0676 6.4095 9.2836 -2.78299e-015 -1.59028e-015 -0 -3.0676 6.4095 9.2835 -2.78299e-015 -1.59028e-015 -0 4.5704 10.946 -2.628 -12 0.317773 5.76617 10.5924 -0.5246 -2.2321 -41.3149 -8.62276 11.3327 27.8415 -0.0001 0 -0.000233502 -9.00499e-006 -59.1149 28.3288 0 -7.10543e-015 32.424 -29.7953 -13.3652 2.4661 -1.575 2.6824 7.21796 -10.2 -1.16934 3.2298 -1.8647 1.8647 0.0375777 6.76468 13.1968 2.6526 -1.5315 1.5315 2.40573 0.997898 4.16231 9.1093 -0.5171 2.2601 -11.9173 -0.148486 1.42256 3.6764 0 0 -3.84937 -0.015559 0.462431 2.8831 0 0 -1.92471 -0.00390106 0.231338 9.5334 0 1.42109e-014 -13.0795 -0.173979 3.64889 3.6982 0 0 -5.36459 -0.030186 0.644002 2.9509 0 -2.84217e-014 -3.4066 -0.265557 0.409533 9.1045 -0.0439 -1.8651 -14.5689 -0.199979 6.43501 3.154 7.10543e-015 0 -7.23833 -0.0549014 0.867929 2.9377 0 1.42109e-014 -5.27263 -0.314258 0.633407 8.0778 -0.4887 -3.8061 -15.3897 -0.118015 12.9811 3.6 -7.10543e-015 -1.42109e-014 -9.14465 0.548996 -2.96939 2.1142 0 -1.42109e-014 -6.72806 -0.0474142 0.807033 -4.57 10.9462 -2.628 12 0.982194 0.412841 -10.5928 -0.5248 -2.2321 52.9327 -36.7939 16.2971 -27.8415 -1.42109e-014 0 2.89787e-005 -2.76071e-005 64.6314 -28.3288 -1.42109e-014 0.0001 -20.2146 18.0271 7.89173 -8.0767 -0.4885 -3.806 4.41962 0.038926 -8.32291 -3.6 -1.42109e-014 0.0001 15.6601 -0.257818 -1.87627 -2.1142 1.42109e-014 1.42109e-014 14.3111 -0.215906 -1.71955 -9.1036 -0.0439 -1.8651 0.422066 0.0260269 -5.25186 -3.154 -1.42109e-014 1.42109e-014 11.8532 -0.148321 -1.42885 -2.9377 1.42109e-014 -1.42109e-014 10.3977 -0.114249 -1.2554 -9.5325 1.42109e-014 1.42109e-014 -4.04379 -0.0124173 -1.82096 -3.6982 1.42109e-014 -1.42109e-014 6.7528 -0.0482405 -0.817886 -2.9509 2.84217e-014 1.42109e-014 5.35898 -0.0303954 -0.651643 -9.1083 -0.5168 2.2601 -7.61559 -0.061347 0.921835 -3.6764 -1.42109e-014 0 2.69925 -0.00768471 -0.327552 -2.8831 0 0 1.34963 -0.00194704 -0.163839 -2.4648 -1.5727 2.6826 -3.30543 -27.4886 -4.36048 -3.2298 -1.8647 1.8647 -8.20321 4.35359 -13.9451 -2.6526 -1.5314 1.5314 -6.08673 -1.89606 -2.93559 8.2078 -6.7517 -1.5996 3.65955 -2.80622 -7.60545 0 -44.3705 0.2846 -2.43322 26.8999 -8.08495 1.77636e-015 -44.4279 -2.9822 -9.0199 3.54518 -0.789238 8.88178e-016 -8.7287 10.7106 1.78634e-006 -17.4324 6.39621e-006 -8.2078 -6.7517 -1.5996 0.502656 3.46209 -11.3355 0 -44.3705 0.2862 -0.954067 18.8526 9.03533 1.77636e-015 -44.4277 -2.9838 5.16842 4.60586 5.9458 -8.88178e-016 -8.7287 10.7106 -1.44999 -17.9388 -0.432227 
-2.074 98.7517 4.74525 -1.06654 -9.12469 1.39843 0 10.1816 0.1315 0.31632 0.101043 4.51775 -8.88178e-016 10.0835 -1.0008 0.455957 5.45216 0.790997 0 9.1 -1.3734 0.430943 5.4514 0.746783 0 16.6717 -2.5162 -3.71865 4.79364 2.54205 0 9.6179 1.685 -6.65078 -8.31878 9.48041 -3.55271e-015 17.8152 2.585 1.19271e-015 1.59028e-015 -0 3.0676 6.4095 9.2836 1.19271e-015 1.59028e-015 -0 -3.0676 6.4095 9.2835 1.19271e-015 1.59028e-015 -0 4.5704 10.946 -2.628 -12 0.309021 7.48071 10.5924 -0.5246 -2.2321 -48.0567 4.23183 4.53773 27.8415 -0.0001 0 -0.000228957 -6.36524e-006 -48.9835 28.3288 -1.42109e-014 -7.10543e-015 27.844 -28.1101 -3.7675 2.4661 -1.575 2.6824 7.76547 -9.12466 -0.034891 3.2298 -1.8647 1.8647 0.0375777 6.76468 13.1968 2.6526 -1.5315 1.5315 2.40573 0.997898 4.16231 9.1093 -0.5171 2.2601 -12.4805 -0.162803 1.48876 3.6764 7.10543e-015 0 -4.43231 -0.0205881 0.53234 2.8831 7.10543e-015 0 -2.21621 -0.00516188 0.266374 9.5334 0 1.42109e-014 -14.236 -0.209193 3.19062 3.6982 7.10543e-015 0 -6.50587 -0.0443501 0.78048 2.9509 7.10543e-015 1.42109e-014 -4.24828 -0.263895 0.51053 9.1045 -0.0439 -1.8651 -16.4665 -0.27204 5.31981 3.154 0 0 -9.07187 -0.0861863 1.08615 2.9377 0 1.42109e-014 -6.79751 -0.322798 0.815774 8.0778 -0.4887 -3.8061 -17.9467 -0.24847 11.2778 3.6 -7.10543e-015 0 -11.4879 0.664317 -2.6625 2.1142 0 -1.42109e-014 -8.7823 -0.08076 1.05176 -4.57 10.9462 -2.628 12 0.894892 -0.106735 -10.5928 -0.5248 -2.2321 60.3092 -30.1588 17.2886 -27.8415 7.10543e-015 -1.42109e-014 -1.63946e-006 -6.61248e-007 49.4521 -28.3288 2.13163e-014 0.0001 -8.3255 18.0517 1.87672 -8.0767 -0.4885 -3.806 7.84766 -0.0340723 -6.69194 -3.6 0 0.0001 17.6445 -0.326845 -2.10721 -2.1142 0 0 16.0681 -0.271818 -1.9255 -9.1036 -0.0439 -1.8651 3.26236 0.00220858 -4.23049 -3.154 -1.42109e-014 0 13.397 -0.189308 -1.61181 -2.9377 1.42109e-014 -1.42109e-014 11.6989 -0.144496 -1.41046 -9.5325 0 0 -1.86177 -0.00131565 -1.47835 -3.6982 -1.42109e-014 0 7.6979 -0.0626831 -0.931721 -2.9509 0 1.42109e-014 6.06916 -0.0389795 -0.737447 -9.1083 -0.5168 2.2601 -5.96064 -0.0376151 0.722327 -3.6764 1.42109e-014 1.42109e-014 3.15446 -0.0105339 -0.38274 -2.8831 0 -1.42109e-014 1.57724 -0.00262887 -0.191449 -2.4648 -1.5727 2.6826 -4.24988 -25.7887 -5.73208 -3.2298 -1.8647 1.8647 -7.84137 4.50141 -14.0515 -2.6526 -1.5314 1.5314 -5.91885 -1.79725 -2.97003 8.2078 -6.7517 -1.5996 0.706704 -6.72612 -4.91574 -8.88178e-016 -44.3705 0.2846 1.64492 41.5465 -9.6552 8.88178e-016 -44.4279 -2.9822 2.17753 -16.4667 -0.581869 8.88178e-016 -8.7287 10.7106 1.21426e-006 -12.7666 8.38861e-007 -8.2078 -6.7517 -1.5996 0.720083 -2.46073 -11.851 -2.66454e-015 -44.3705 0.2862 -2.53445 35.5819 5.7602 8.88178e-016 -44.4277 -2.9838 -2.43924 -21.0879 10.562 0 -8.7287 10.7106 3.31371e-006 -6.71099 5.25379e-006 
